<?xml version="1.0" encoding="UTF-8"?>
<!-- Generator: Adobe Illustrator 27.2.0, SVG Export Plug-In . SVG Version: 6.00 Build 0)  -->
<svg xmlns="http://www.w3.org/2000/svg" xmlns:xlink="http://www.w3.org/1999/xlink" version="1.1" id="Camada_1" x="0px" y="0px" viewBox="0 0 175.85 40.58" style="enable-background:new 0 0 175.85 40.58;" xml:space="preserve">
<style type="text/css">
	.st0{fill:#1D1934;}
	.st1{fill:#F5A800;}
</style>
<g>
	<g>
		<path class="st0" d="M54.11,26.79v-0.74c0.37,0,1.46-0.09,1.51-0.16c0.14-0.26,0.16-1.85,0.16-2.9V18.5c0-1.05-0.02-2.64-0.16-2.9    c-0.05-0.07-1.14-0.16-1.51-0.16V14.7h11.01l0.11,2.66h-0.81c-0.09-0.22-0.39-0.95-0.54-1.17c-0.3-0.59-0.56-0.73-1.83-0.73h-2.09    v4.58h0.58c1.04,0,1.65-0.04,1.86-0.24l0.21-1.45h0.74v4.15H62.6l-0.21-1.45c-0.21-0.21-0.82-0.24-1.86-0.24h-0.58v5.05    c0.25,0.1,0.74,0.19,1.4,0.19h0.54c1.02,0,2.07-0.09,2.34-0.57c0.39-0.52,0.81-1.68,0.84-1.87h0.83v3.2H54.11z"></path>
		<path class="st0" d="M66.88,26.79v-0.64c0.21,0,1.14-0.07,1.19-0.12c0.12-0.23,0.14-1.57,0.14-2.49v-7.86l-1.33-0.43v-0.59    c1.25-0.09,3.07-0.73,3.86-1.14l1.04,0.12v9.9c0,0.92,0.02,2.26,0.14,2.49c0.05,0.05,0.98,0.12,1.21,0.12v0.64H66.88z"></path>
		<path class="st0" d="M73.72,22.58c0-2.47,1.97-4.59,4.58-4.59c2.35,0,3.83,1.3,3.83,3.33h-5.55c0.03,2.06,1.33,3.23,3.11,3.23    c0.95,0,1.79-0.4,2.21-0.97l0.4,0.29c-0.7,2.42-2.62,3.18-4.05,3.18C75.67,27.05,73.72,25.22,73.72,22.58z M76.6,20.75l1.9-0.05    c0.88-0.04,1.07-0.21,1.07-0.6c0-0.81-0.47-1.4-1.35-1.4C77.39,18.69,76.71,19.24,76.6,20.75z"></path>
		<path class="st0" d="M83.01,22.72c0-2.57,2.16-4.73,5.09-4.73c1.6,0,2.97,0.6,2.97,1.52c0,0.55-0.42,0.95-1.4,0.95    c-0.21-0.1-0.46-0.4-0.77-1.07c-0.21-0.48-0.35-0.78-1.03-0.78c-1.21,0-1.91,1.11-1.91,2.61c0,2.28,1.6,3.33,3,3.33    c0.81,0,1.35-0.28,1.79-0.76l0.4,0.29c-0.4,1.55-1.86,2.97-3.86,2.97C85.03,27.05,83.01,25.34,83.01,22.72z"></path>
		<path class="st0" d="M92.74,25.48v-6l-1.28-0.15v-0.47c1.7-0.47,2.76-1.24,3.55-2.11l0.3-0.36h1v1.85h2.35l-0.09,1.24h-2.26v4.39    c0,1.31,0.39,1.78,1.63,1.78c0.32,0,0.81-0.05,1.05-0.1l0.12,0.62c-0.58,0.34-2.11,0.88-3.74,0.88    C94.01,27.05,92.74,26.69,92.74,25.48z"></path>
		<path class="st0" d="M99.44,26.79v-0.64c0.23,0,1.16-0.07,1.21-0.12c0.12-0.23,0.14-1.57,0.14-2.49v-3.37l-1.33-0.43v-0.59    c1.25-0.07,3.05-0.73,3.86-1.14l1.03,0.12v2.11c0.91-1.62,1.47-2.26,2.23-2.26c0.56,0,0.91,0.36,0.91,1.12    c0,0.67-0.21,1.43-0.49,1.87h-0.11c-0.84-0.36-1.39-0.55-1.86-0.55c-0.26,0-0.47,0.07-0.68,0.33v2.8c0,0.92,0.02,2.26,0.14,2.49    c0.05,0.05,1.14,0.12,1.54,0.12v0.64H99.44z"></path>
		<path class="st0" d="M108.09,26.79v-0.64c0.23,0,1.16-0.07,1.21-0.12c0.12-0.23,0.14-1.57,0.14-2.49v-3.37l-1.33-0.43v-0.59    c1.25-0.07,3.05-0.73,3.86-1.14l1.03,0.12v5.41c0,0.92,0.02,2.26,0.14,2.49c0.05,0.05,0.98,0.12,1.19,0.12v0.64H108.09z     M111.2,13.65c1.07,0,1.88,0.67,1.88,1.74c0,1.02-0.81,1.73-1.88,1.73c-1.02,0-1.86-0.71-1.86-1.73    C109.34,14.32,110.18,13.65,111.2,13.65z"></path>
		<path class="st0" d="M115,22.72c0-2.57,2.16-4.73,5.09-4.73c1.6,0,2.97,0.6,2.97,1.52c0,0.55-0.42,0.95-1.4,0.95    c-0.21-0.1-0.46-0.4-0.77-1.07c-0.21-0.48-0.35-0.78-1.03-0.78c-1.21,0-1.91,1.11-1.91,2.61c0,2.28,1.6,3.33,3,3.33    c0.81,0,1.35-0.28,1.79-0.76l0.4,0.29c-0.4,1.55-1.86,2.97-3.86,2.97C117.01,27.05,115,25.34,115,22.72z"></path>
		<path class="st0" d="M139.45,26.79v-0.74c0.35,0,1.3-0.09,1.35-0.16c0.16-0.26,0.14-1.85,0.14-2.9l-0.03-4.32    c0-0.21,0-0.57,0.02-0.85c-0.07,0.26-0.26,0.74-0.33,0.95l-3.35,8.02h-1.63l-3.18-8c-0.14-0.29-0.26-0.66-0.33-0.93    c0.02,0.19,0.02,0.53,0.02,0.85l-0.09,4.28c-0.02,1.05-0.02,2.64,0.12,2.9c0.05,0.07,0.98,0.16,1.35,0.16v0.74h-4.12v-0.74    c0.37,0,1.46-0.09,1.53-0.16c0.14-0.26,0.19-1.85,0.19-2.9l0.16-6.79c-0.14-0.35-0.28-0.55-0.42-0.67    c-0.14-0.02-0.93-0.09-1.3-0.09V14.7h5.58l3,7.76l3.12-7.76h5.35v0.74c-0.35,0-1.46,0.09-1.51,0.16c-0.14,0.26-0.14,1.85-0.12,2.9    l0.07,4.49c0.02,1.05,0.05,2.64,0.19,2.9c0.07,0.07,1.16,0.16,1.51,0.16v0.74H139.45z"></path>
		<path class="st0" d="M152.3,27.05c-2.28,0-5.04-1.45-5.04-4.42c0-2.73,2.62-4.65,5.48-4.65c2.28,0,5.02,1.45,5.02,4.42    C157.75,25.14,155.16,27.05,152.3,27.05z M152.42,18.66c-0.86,0-1.46,1.19-1.46,3.39c0,2.78,0.53,4.34,1.65,4.34    c0.88,0,1.46-1.19,1.46-3.39C154.07,20.21,153.56,18.66,152.42,18.66z"></path>
		<path class="st0" d="M161.8,26.79l-2.42-5.72c-0.37-0.88-0.84-1.9-1.03-2.07c-0.07-0.05-0.65-0.12-0.74-0.12v-0.64h5.84v0.64    c-0.14,0-0.95,0.07-0.98,0.12c0,0.16,0.4,1.26,0.74,2.06l0.86,2.25l0.9-2.25c0.3-0.81,0.72-1.9,0.72-2.06    c-0.03-0.05-0.88-0.12-1.03-0.12v-0.64h2.88v0.64c-0.12,0-0.67,0.07-0.74,0.12c-0.18,0.17-0.6,1.19-0.98,2.14l-2.37,5.65H161.8z"></path>
		<path class="st0" d="M167.26,22.58c0-2.47,1.97-4.59,4.58-4.59c2.35,0,3.83,1.3,3.83,3.33h-5.55c0.03,2.06,1.33,3.23,3.11,3.23    c0.95,0,1.79-0.4,2.21-0.97l0.4,0.29c-0.7,2.42-2.62,3.18-4.05,3.18C169.21,27.05,167.26,25.22,167.26,22.58z M170.14,20.75    l1.9-0.05c0.88-0.04,1.07-0.21,1.07-0.6c0-0.81-0.47-1.4-1.35-1.4C170.93,18.69,170.25,19.24,170.14,20.75z"></path>
	</g>
	<polygon class="st1" points="9.69,27.52 0,32.17 0,40.58 13.53,34.05 13.53,40.58 40.58,27.52 31.92,23.3 25.14,26.59 21.78,24.95    40.58,15.87 31.92,11.65 25.14,14.94 21.78,13.3 40.58,4.23 31.92,0 25.14,3.29 18.4,0 9.69,4.23 0,8.88 0,17.28 13.53,10.75    13.53,14.01 9.69,15.87 0,20.53 0,28.93 13.53,22.4 13.53,25.66  "></polygon>
</g>
</svg>
